<svg width="800" height="200" viewBox="0 0 800 200" xmlns="http://www.w3.org/2000/svg">
  <!-- Decorative Clouds Background -->
  <defs>
    <linearGradient id="cloudGradient" x1="0%" y1="0%" x2="100%" y2="100%">
      <stop offset="0%" style="stop-color:#FFFFFF;stop-opacity:0.8" />
      <stop offset="100%" style="stop-color:#F0F8FF;stop-opacity:0.6" />
    </linearGradient>
  </defs>
  
  <!-- Cloud 1 -->
  <g fill="url(#cloudGradient)">
    <ellipse cx="100" cy="50" rx="40" ry="25"/>
    <ellipse cx="130" cy="50" rx="35" ry="20"/>
    <ellipse cx="70" cy="50" rx="35" ry="20"/>
    <ellipse cx="100" cy="35" rx="30" ry="15"/>
  </g>
  
  <!-- Cloud 2 -->
  <g fill="url(#cloudGradient)">
    <ellipse cx="300" cy="80" rx="45" ry="30"/>
    <ellipse cx="335" cy="80" rx="40" ry="25"/>
    <ellipse cx="265" cy="80" rx="40" ry="25"/>
    <ellipse cx="300" cy="60" rx="35" ry="20"/>
  </g>
  
  <!-- Cloud 3 -->
  <g fill="url(#cloudGradient)">
    <ellipse cx="500" cy="40" rx="35" ry="20"/>
    <ellipse cx="530" cy="40" rx="30" ry="15"/>
    <ellipse cx="470" cy="40" rx="30" ry="15"/>
    <ellipse cx="500" cy="25" rx="25" ry="12"/>
  </g>
  
  <!-- Cloud 4 -->
  <g fill="url(#cloudGradient)">
    <ellipse cx="700" cy="70" rx="40" ry="25"/>
    <ellipse cx="730" cy="70" rx="35" ry="20"/>
    <ellipse cx="670" cy="70" rx="35" ry="20"/>
    <ellipse cx="700" cy="55" rx="30" ry="15"/>
  </g>
  
  <!-- Small floating elements -->
  <g fill="#E3F2FD" opacity="0.4">
    <circle cx="200" cy="30" r="8"/>
    <circle cx="400" cy="60" r="6"/>
    <circle cx="600" cy="90" r="10"/>
    <circle cx="750" cy="20" r="5"/>
  </g>
</svg>
